<svg xmlns="http://www.w3.org/2000/svg" viewBox="0 0 312.39 344.69">
  <defs>
    <style>
      .cls-1 {
        fill: none;
        stroke: #008adf;
        stroke-miterlimit: 10;
        stroke-width: 12px;
      }
    </style>
  </defs>
  <title>snowy</title>
  <g id="Ebene_1" data-name="Ebene 1">
    <line class="cls-1" x1="156.22" y1="170.64" x2="156.22"/>
    <line class="cls-1" x1="156.66" y1="71.08" x2="210.28" y2="36.45"/>
    <line class="cls-1" x1="155.77" y1="70.6" x2="102.31" y2="35.73"/>
    <line class="cls-1" x1="151.71" y1="170.64" x2="2.94" y2="87.07"/>
    <line class="cls-1" x1="65.13" y1="121.49" x2="61.19" y2="57.79"/>
    <line class="cls-1" x1="64.28" y1="122.04" x2="7.69" y2="151.57"/>
    <line class="cls-1" x1="151.5" y1="174.05" x2="5.04" y2="261.61"/>
    <line class="cls-1" x1="64.88" y1="222.84" x2="7.64" y2="194.59"/>
    <line class="cls-1" x1="64.92" y1="223.85" x2="62.42" y2="287.63"/>
    <line class="cls-1" x1="156.18" y1="174.05" x2="156.32" y2="344.69"/>
    <line class="cls-1" x1="155.82" y1="273.61" x2="102.23" y2="308.29"/>
    <line class="cls-1" x1="156.71" y1="274.09" x2="210.2" y2="308.91"/>
    <line class="cls-1" x1="160.47" y1="174.68" x2="309.47" y2="257.85"/>
    <line class="cls-1" x1="247.18" y1="223.6" x2="251.29" y2="287.29"/>
    <line class="cls-1" x1="248.04" y1="223.05" x2="304.54" y2="193.37"/>
    <line class="cls-1" x1="161.39" y1="171.33" x2="308.55" y2="84.94"/>
    <line class="cls-1" x1="247.47" y1="121.31" x2="304.48" y2="150.02"/>
    <line class="cls-1" x1="247.43" y1="120.3" x2="250.44" y2="56.54"/>
    <line class="cls-1" x1="150.13" y1="172.4" x2="162.3" y2="172.29"/>
  </g>
</svg>
